<svg width="540" height="145" viewBox="0 0 540 145" fill="none" xmlns="http://www.w3.org/2000/svg">
<g filter="url(#filter0_di_1_4)">
<path d="M35.0766 107.561H5V10H36.4092C45.8636 10 53.9539 11.9531 60.6799 15.8594C67.4059 19.7339 72.5614 25.3074 76.1465 32.58C79.7316 39.8209 81.5241 48.4909 81.5241 58.5899C81.5241 68.7525 79.7157 77.5019 76.0989 84.838C72.4821 92.1424 67.2155 97.7636 60.2991 101.702C53.3828 105.608 44.9753 107.561 35.0766 107.561ZM16.8022 97.0808H34.3152C42.3737 97.0808 49.0521 95.5246 54.3504 92.4123C59.6488 89.3 63.5987 84.8698 66.2003 79.1216C68.8018 73.3733 70.1026 66.5295 70.1026 58.5899C70.1026 50.7139 68.8177 43.9336 66.2479 38.2489C63.678 32.5324 59.8391 28.1498 54.7312 25.101C49.6232 22.0205 43.2621 20.4802 35.6477 20.4802H16.8022V97.0808Z" fill="#EB4408"/>
<path d="M121.309 109.276C116.677 109.276 112.473 108.403 108.698 106.656C104.922 104.877 101.924 102.321 99.7034 98.9863C97.4825 95.6199 96.3721 91.5549 96.3721 86.7912C96.3721 82.5991 97.197 79.201 98.8467 76.5968C100.497 73.9609 102.702 71.8966 105.462 70.404C108.222 68.9113 111.268 67.7998 114.599 67.0694C117.962 66.3072 121.341 65.7038 124.735 65.2591C129.177 64.6875 132.778 64.2588 135.538 63.9729C138.33 63.6554 140.361 63.1313 141.63 62.4009C142.931 61.6705 143.581 60.4002 143.581 58.5899V58.2088C143.581 53.5086 142.296 49.8565 139.726 47.2523C137.188 44.6481 133.333 43.346 128.162 43.346C122.8 43.346 118.596 44.5211 115.551 46.8712C112.505 49.2213 110.363 51.7302 109.126 54.3979L98.466 50.5869C100.37 46.1407 102.908 42.6791 106.08 40.202C109.285 37.6931 112.775 35.9464 116.55 34.9619C120.357 33.9456 124.101 33.4375 127.781 33.4375C130.129 33.4375 132.826 33.7233 135.871 34.295C138.949 34.8349 141.915 35.9623 144.771 37.6772C147.658 39.3921 150.053 41.9804 151.957 45.4421C153.86 48.9037 154.812 53.5404 154.812 59.3521V107.561H143.581V97.6524H143.01C142.248 99.2403 140.979 100.939 139.203 102.75C137.426 104.56 135.062 106.1 132.112 107.37C129.161 108.641 125.56 109.276 121.309 109.276ZM123.022 99.1768C127.464 99.1768 131.208 98.3035 134.253 96.5568C137.331 94.8101 139.647 92.5553 141.202 89.7923C142.788 87.0293 143.581 84.1235 143.581 81.0747V70.7851C143.105 71.3567 142.058 71.8807 140.44 72.3571C138.854 72.8017 137.014 73.1987 134.92 73.548C132.857 73.8656 130.843 74.1514 128.876 74.4055C126.94 74.6278 125.37 74.8183 124.164 74.9771C121.246 75.3582 118.517 75.9775 115.979 76.835C113.473 77.6607 111.442 78.9151 109.888 80.5983C108.365 82.2497 107.603 84.5046 107.603 87.3628C107.603 91.2691 109.047 94.2226 111.934 96.2233C114.853 98.1923 118.549 99.1768 123.022 99.1768Z" fill="#EB4408"/>
<path d="M179.928 135C178.024 135 176.327 134.841 174.835 134.524C173.344 134.238 172.313 133.952 171.742 133.666L174.598 123.758C177.326 124.456 179.737 124.71 181.831 124.52C183.925 124.329 185.781 123.392 187.399 121.709C189.049 120.058 190.556 117.374 191.92 113.659L194.014 107.942L166.983 34.3902H179.166L199.344 92.6982H200.106L220.284 34.3902H232.467L201.438 118.232C200.042 122.011 198.313 125.139 196.251 127.616C194.189 130.125 191.793 131.983 189.065 133.19C186.368 134.397 183.322 135 179.928 135Z" fill="#EB4408"/>
<path d="M238.903 20.4802V10H312.001V20.4802H281.353V107.561H269.551V20.4802H238.903Z" fill="#EB4408"/>
<path d="M340.257 109.276C335.625 109.276 331.421 108.403 327.646 106.656C323.87 104.877 320.872 102.321 318.651 98.9863C316.431 95.6199 315.32 91.5549 315.32 86.7912C315.32 82.5991 316.145 79.201 317.795 76.5968C319.444 73.9609 321.649 71.8966 324.41 70.404C327.17 68.9113 330.216 67.7998 333.547 67.0694C336.91 66.3072 340.289 65.7038 343.683 65.2591C348.125 64.6875 351.726 64.2588 354.486 63.9729C357.278 63.6554 359.309 63.1313 360.578 62.4009C361.879 61.6705 362.529 60.4002 362.529 58.5899V58.2088C362.529 53.5086 361.244 49.8565 358.674 47.2523C356.136 44.6481 352.281 43.346 347.11 43.346C341.748 43.346 337.544 44.5211 334.499 46.8712C331.453 49.2213 329.311 51.7302 328.074 54.3979L317.414 50.5869C319.318 46.1407 321.856 42.6791 325.028 40.202C328.233 37.6931 331.723 35.9464 335.498 34.9619C339.305 33.9456 343.049 33.4375 346.729 33.4375C349.077 33.4375 351.774 33.7233 354.819 34.295C357.897 34.8349 360.863 35.9623 363.719 37.6772C366.606 39.3921 369.001 41.9804 370.905 45.4421C372.808 48.9037 373.76 53.5404 373.76 59.3521V107.561H362.529V97.6524H361.958C361.196 99.2403 359.927 100.939 358.151 102.75C356.374 104.56 354.01 106.1 351.06 107.37C348.109 108.641 344.508 109.276 340.257 109.276ZM341.97 99.1768C346.412 99.1768 350.156 98.3035 353.201 96.5568C356.279 94.8101 358.595 92.5553 360.149 89.7923C361.736 87.0293 362.529 84.1235 362.529 81.0747V70.7851C362.053 71.3567 361.006 71.8807 359.388 72.3571C357.802 72.8017 355.962 73.1987 353.868 73.548C351.805 73.8656 349.791 74.1514 347.824 74.4055C345.888 74.6278 344.318 74.8183 343.112 74.9771C340.194 75.3582 337.465 75.9775 334.927 76.835C332.421 77.6607 330.39 78.9151 328.836 80.5983C327.313 82.2497 326.551 84.5046 326.551 87.3628C326.551 91.2691 327.995 94.2226 330.882 96.2233C333.801 98.1923 337.497 99.1768 341.97 99.1768Z" fill="#EB4408"/>
<path d="M446.037 50.7774L435.948 53.6357C435.313 51.9525 434.377 50.3169 433.14 48.729C431.934 47.1094 430.285 45.7755 428.191 44.7275C426.097 43.6795 423.416 43.1555 420.148 43.1555C415.675 43.1555 411.947 44.1876 408.965 46.2519C406.014 48.2844 404.539 50.8727 404.539 54.0168C404.539 56.8115 405.554 59.0187 407.584 60.6383C409.615 62.258 412.788 63.6077 417.102 64.6875L427.953 67.3552C434.488 68.9431 439.358 71.3726 442.563 74.6437C445.767 77.883 447.369 82.0592 447.369 87.1723C447.369 91.3643 446.164 95.1118 443.753 98.4146C441.373 101.717 438.042 104.322 433.759 106.227C429.476 108.133 424.495 109.085 418.816 109.085C411.36 109.085 405.189 107.466 400.303 104.226C395.417 100.987 392.324 96.2551 391.023 90.0305L401.683 87.3628C402.699 91.3008 404.618 94.2543 407.442 96.2233C410.297 98.1923 414.025 99.1768 418.625 99.1768C423.86 99.1768 428.016 98.0653 431.094 95.8422C434.203 93.5874 435.758 90.888 435.758 87.7439C435.758 85.2033 434.869 83.0755 433.092 81.3605C431.316 79.6138 428.587 78.3117 424.907 77.4543L412.724 74.596C406.03 73.0081 401.112 70.5469 397.971 67.2123C394.862 63.8459 393.308 59.638 393.308 54.5884C393.308 50.4599 394.466 46.8077 396.782 43.6319C399.129 40.456 402.318 37.963 406.347 36.1528C410.408 34.3426 415.008 33.4375 420.148 33.4375C427.382 33.4375 433.061 35.0254 437.185 38.2012C441.341 41.377 444.292 45.5691 446.037 50.7774Z" fill="#EB4408"/>
<path d="M474.745 80.8841L474.555 66.9741H476.839L508.819 34.3902H522.716L488.641 68.8796H487.69L474.745 80.8841ZM464.276 107.561V10H475.507V107.561H464.276ZM510.723 107.561L482.169 71.3567L490.164 63.5442L525 107.561H510.723Z" fill="#EB4408"/>
</g>
<defs>
<filter id="filter0_di_1_4" x="0" y="0" width="540" height="145" filterUnits="userSpaceOnUse" color-interpolation-filters="sRGB">
<feFlood flood-opacity="0" result="BackgroundImageFix"/>
<feColorMatrix in="SourceAlpha" type="matrix" values="0 0 0 0 0 0 0 0 0 0 0 0 0 0 0 0 0 0 127 0" result="hardAlpha"/>
<feOffset dx="5"/>
<feGaussianBlur stdDeviation="5"/>
<feComposite in2="hardAlpha" operator="out"/>
<feColorMatrix type="matrix" values="0 0 0 0 0 0 0 0 0 0 0 0 0 0 0 0 0 0 0.25 0"/>
<feBlend mode="normal" in2="BackgroundImageFix" result="effect1_dropShadow_1_4"/>
<feBlend mode="normal" in="SourceGraphic" in2="effect1_dropShadow_1_4" result="shape"/>
<feColorMatrix in="SourceAlpha" type="matrix" values="0 0 0 0 0 0 0 0 0 0 0 0 0 0 0 0 0 0 127 0" result="hardAlpha"/>
<feOffset dy="4"/>
<feGaussianBlur stdDeviation="2"/>
<feComposite in2="hardAlpha" operator="arithmetic" k2="-1" k3="1"/>
<feColorMatrix type="matrix" values="0 0 0 0 0 0 0 0 0 0 0 0 0 0 0 0 0 0 0.25 0"/>
<feBlend mode="normal" in2="shape" result="effect2_innerShadow_1_4"/>
</filter>
</defs>
</svg>
